<svg xmlns="http://www.w3.org/2000/svg" viewBox="0 0 120 120" aria-label="ice cream"><path d="M40 58L80 58L60 112Z" fill="#F2A93B"/><path d="M46 66L64 92M58 60L72 76M74 66L56 92M62 60L48 76" stroke="#D98A1E" stroke-width="2.5" stroke-linecap="round"/><circle cx="60" cy="42" r="24" fill="#FF9EC0"/><circle cx="42" cy="58" r="8" fill="#FF9EC0"/><circle cx="60" cy="62" r="9" fill="#FF9EC0"/><circle cx="78" cy="58" r="8" fill="#FF9EC0"/><rect x="48" y="34" width="6" height="2.5" rx="1.2" fill="#5B4FE0" transform="rotate(30 51 35)"/><rect x="66" y="40" width="6" height="2.5" rx="1.2" fill="#3DBE6E" transform="rotate(-20 69 41)"/><rect x="56" y="48" width="6" height="2.5" rx="1.2" fill="#FFB627"/><path d="M60 14Q64 4 72 6" stroke="#3DBE6E" stroke-width="2.5" fill="none" stroke-linecap="round"/><circle cx="60" cy="18" r="7" fill="#F2546B"/></svg>
